<svg width="1024" height="1024" viewBox="0 0 1024 1024" fill="none" xmlns="http://www.w3.org/2000/svg">
<path d="M61 737.908H158.941" stroke="#04264C" stroke-width="6.9958" stroke-linecap="round"/>
<path d="M171.294 758.929L190.434 719.752H197.486L216.515 758.929H209.855L196.703 731.953C196.367 731.244 196.031 730.554 195.695 729.882C195.359 729.21 195.024 728.539 194.688 727.867C194.389 727.196 194.091 726.487 193.792 725.741C193.494 724.994 193.195 724.173 192.897 723.278L194.688 723.222C194.352 724.117 194.016 724.957 193.68 725.741C193.382 726.524 193.065 727.27 192.729 727.979C192.393 728.688 192.057 729.397 191.722 730.106C191.386 730.777 191.05 731.468 190.714 732.177L177.674 758.929H171.294ZM179.633 749.75L182.039 743.93H205.265L206.217 749.75H179.633ZM240.255 758.929V719.752H246.243L278.032 751.821L277.696 752.325C277.51 751.205 277.342 750.011 277.193 748.743C277.081 747.437 276.988 746.112 276.913 744.769C276.838 743.389 276.764 742.008 276.689 740.628C276.652 739.21 276.614 737.829 276.577 736.486C276.577 735.143 276.577 733.856 276.577 732.624V719.752H282.622V758.929H276.521L245.124 728.035L245.18 727.252C245.255 727.923 245.329 728.725 245.404 729.658C245.478 730.591 245.572 731.598 245.684 732.68C245.796 733.762 245.889 734.882 245.964 736.038C246.075 737.158 246.15 738.296 246.187 739.452C246.262 740.572 246.299 741.635 246.299 742.642V758.929H240.255ZM311.393 758.929V719.752H331.206C334.787 719.752 337.94 720.274 340.664 721.319C343.425 722.364 345.738 723.8 347.604 725.629C349.469 727.42 350.868 729.49 351.801 731.841C352.734 734.191 353.2 736.691 353.2 739.34C353.2 742.027 352.734 744.564 351.801 746.952C350.868 749.302 349.469 751.373 347.604 753.164C345.738 754.955 343.425 756.373 340.664 757.417C337.94 758.425 334.787 758.929 331.206 758.929H311.393ZM317.438 753.724L317.27 753.108H330.926C333.724 753.108 336.112 752.754 338.089 752.045C340.104 751.336 341.746 750.347 343.015 749.079C344.283 747.81 345.216 746.355 345.813 744.713C346.447 743.034 346.764 741.243 346.764 739.34C346.764 737.475 346.447 735.721 345.813 734.08C345.216 732.438 344.283 730.983 343.015 729.714C341.746 728.408 340.104 727.401 338.089 726.692C336.112 725.946 333.724 725.573 330.926 725.573H317.102L317.438 725.069V753.724ZM434.071 759.488C430.937 759.488 427.99 759.022 425.229 758.089C422.505 757.119 420.098 755.757 418.009 754.004C415.957 752.213 414.353 750.086 413.196 747.623C412.039 745.124 411.461 742.363 411.461 739.34C411.461 736.467 412.058 733.818 413.252 731.393C414.483 728.968 416.143 726.86 418.233 725.069C420.322 723.278 422.729 721.897 425.453 720.927C428.176 719.92 431.049 719.416 434.071 719.416C436.609 719.416 439.034 719.752 441.347 720.424C443.66 721.058 445.75 721.879 447.615 722.886C449.518 723.856 451.029 724.882 452.149 725.964L448.567 731.057C447.223 729.938 445.787 728.949 444.257 728.091C442.728 727.233 441.067 726.561 439.276 726.076C437.523 725.591 435.601 725.349 433.512 725.349C431.534 725.349 429.594 725.685 427.691 726.356C425.826 726.99 424.128 727.923 422.598 729.154C421.069 730.348 419.856 731.822 418.96 733.576C418.065 735.292 417.617 737.214 417.617 739.34C417.617 741.691 418.084 743.762 419.016 745.553C419.949 747.306 421.218 748.78 422.822 749.974C424.427 751.168 426.236 752.082 428.251 752.716C430.266 753.313 432.355 753.612 434.519 753.612C436.758 753.612 438.754 753.332 440.508 752.772C442.261 752.175 443.828 751.448 445.209 750.59C446.589 749.731 447.839 748.892 448.958 748.071L451.869 753.108C450.824 753.966 449.388 754.899 447.559 755.906C445.768 756.914 443.716 757.772 441.403 758.481C439.127 759.152 436.683 759.488 434.071 759.488ZM498.458 759.488C494.988 759.488 491.816 758.985 488.943 757.977C486.07 756.932 483.571 755.496 481.444 753.668C479.317 751.802 477.675 749.657 476.519 747.232C475.362 744.769 474.784 742.139 474.784 739.34C474.784 736.542 475.362 733.93 476.519 731.505C477.675 729.043 479.317 726.897 481.444 725.069C483.571 723.203 486.07 721.767 488.943 720.76C491.816 719.715 494.988 719.192 498.458 719.192C501.89 719.192 505.043 719.715 507.916 720.76C510.789 721.767 513.289 723.203 515.415 725.069C517.542 726.897 519.184 729.043 520.341 731.505C521.534 733.93 522.131 736.542 522.131 739.34C522.131 742.139 521.534 744.769 520.341 747.232C519.184 749.657 517.542 751.802 515.415 753.668C513.289 755.496 510.789 756.932 507.916 757.977C505.043 758.985 501.89 759.488 498.458 759.488ZM498.458 753.612C501.032 753.612 503.383 753.257 505.509 752.548C507.636 751.802 509.483 750.795 511.05 749.526C512.617 748.22 513.83 746.709 514.688 744.993C515.546 743.239 515.975 741.355 515.975 739.34C515.975 737.326 515.546 735.46 514.688 733.744C513.83 731.99 512.617 730.479 511.05 729.21C509.483 727.905 507.636 726.897 505.509 726.188C503.383 725.442 501.032 725.069 498.458 725.069C495.883 725.069 493.514 725.442 491.35 726.188C489.223 726.897 487.376 727.905 485.809 729.21C484.242 730.479 483.03 731.99 482.171 733.744C481.351 735.46 480.94 737.326 480.94 739.34C480.94 741.355 481.351 743.239 482.171 744.993C483.03 746.709 484.242 748.22 485.809 749.526C487.376 750.795 489.223 751.802 491.35 752.548C493.514 753.257 495.883 753.612 498.458 753.612ZM547.852 758.929V719.752H553.784L571.637 741.859H569.51L587.364 719.752H593.296V758.929H587.252V742.307C587.252 739.21 587.326 736.3 587.476 733.576C587.625 730.852 587.923 728.072 588.371 725.237L588.987 727.531L572.421 747.679H568.727L552.161 727.531L552.777 725.237C553.224 728.072 553.523 730.852 553.672 733.576C553.821 736.3 553.896 739.21 553.896 742.307V758.929H547.852ZM622.051 758.929V719.752H644.941C647.254 719.752 649.362 720.293 651.265 721.375C653.205 722.42 654.754 723.856 655.91 725.685C657.067 727.513 657.645 729.546 657.645 731.785C657.645 734.135 657.011 736.281 655.742 738.221C654.474 740.124 652.795 741.654 650.705 742.81C648.616 743.93 646.321 744.489 643.822 744.489H628.095V758.929H622.051ZM628.095 738.669H643.262C644.68 738.669 645.986 738.352 647.18 737.717C648.411 737.083 649.381 736.244 650.09 735.199C650.836 734.154 651.209 733.016 651.209 731.785C651.209 730.628 650.836 729.584 650.09 728.651C649.381 727.718 648.411 726.972 647.18 726.412C645.986 725.852 644.68 725.573 643.262 725.573H628.095V738.669ZM675.09 758.929L694.23 719.752H701.282L720.311 758.929H713.651L700.499 731.953C700.163 731.244 699.827 730.554 699.491 729.882C699.155 729.21 698.82 728.539 698.484 727.867C698.185 727.196 697.887 726.487 697.588 725.741C697.29 724.994 696.991 724.173 696.693 723.278L698.484 723.222C698.148 724.117 697.812 724.957 697.476 725.741C697.178 726.524 696.861 727.27 696.525 727.979C696.189 728.688 695.853 729.397 695.517 730.106C695.182 730.777 694.846 731.468 694.51 732.177L681.47 758.929H675.09ZM683.429 749.75L685.835 743.93H709.061L710.013 749.75H683.429ZM744.051 758.929V719.752H750.039L781.828 751.821L781.492 752.325C781.306 751.205 781.138 750.011 780.989 748.743C780.877 747.437 780.783 746.112 780.709 744.769C780.634 743.389 780.56 742.008 780.485 740.628C780.448 739.21 780.41 737.829 780.373 736.486C780.373 735.143 780.373 733.856 780.373 732.624V719.752H786.417V758.929H780.317L748.92 728.035L748.976 727.252C749.051 727.923 749.125 728.725 749.2 729.658C749.274 730.591 749.368 731.598 749.48 732.68C749.592 733.762 749.685 734.882 749.759 736.038C749.871 737.158 749.946 738.296 749.983 739.452C750.058 740.572 750.095 741.635 750.095 742.642V758.929H744.051ZM829.405 758.929V741.411L830.524 745.721L809.481 719.752H817.876L833.155 739.508H831.867L846.754 719.752H854.254L835.169 744.209L835.449 740.963V758.929H829.405Z" fill="#04264C"/>
<path d="M864.118 737.908H962.059" stroke="#04264C" stroke-width="6.9958" stroke-linecap="round"/>
<path d="M266.123 630.287C266.123 625.75 265.197 622.139 263.347 619.452C261.556 616.706 258.183 615.333 253.228 615.333H248.392C246.781 615.273 245.169 615.303 243.557 615.423C242.005 615.482 240.423 615.512 238.811 615.512V643.093C238.811 644.406 239.288 645.271 240.244 645.689C241.199 646.048 242.214 646.227 243.288 646.227C244.422 646.227 245.527 646.227 246.601 646.227C247.736 646.167 248.87 646.107 250.004 646.048C254.899 645.749 258.81 644.346 261.735 641.839C264.66 639.272 266.123 635.421 266.123 630.287ZM261.556 598.678C261.556 594.2 260.362 590.977 257.974 589.007C255.586 586.977 252.243 585.962 247.945 585.962C244.9 585.962 241.855 586.052 238.811 586.231V612.647C239.468 612.647 240.124 612.647 240.781 612.647C241.497 612.647 242.184 612.647 242.84 612.647C244.333 612.647 245.975 612.587 247.766 612.468C249.556 612.348 251.288 612.08 252.959 611.662C254.631 611.184 256.004 610.408 257.078 609.334C258.451 608.02 259.526 606.408 260.302 604.498C261.138 602.528 261.556 600.588 261.556 598.678ZM276.779 628.855C276.779 633.093 275.764 636.765 273.734 639.869C271.704 642.913 268.69 645.212 264.69 646.764C262.541 647.6 260.183 648.167 257.616 648.465C255.049 648.704 252.601 648.823 250.273 648.823C249.855 648.823 249.437 648.823 249.019 648.823C248.601 648.823 248.154 648.823 247.676 648.823C244.87 648.704 242.035 648.615 239.169 648.555C236.363 648.435 233.558 648.376 230.752 648.376C229.14 648.376 227.528 648.495 225.916 648.734C224.364 648.913 222.782 649.003 221.17 649.003C220.454 649.003 220.006 648.823 219.827 648.465C219.708 648.107 219.648 647.63 219.648 647.033C219.648 646.615 219.797 646.316 220.096 646.137C220.394 645.958 220.723 645.868 221.081 645.868C221.917 645.868 222.752 645.868 223.588 645.868C224.484 645.809 225.319 645.719 226.095 645.6C227.23 645.421 227.946 644.943 228.244 644.167C228.603 643.391 228.812 642.496 228.871 641.481C228.991 640.287 229.021 639.093 228.961 637.899C228.961 636.645 228.961 635.421 228.961 634.227V611.662C228.961 611.065 228.961 609.96 228.961 608.349C228.961 606.677 228.961 604.826 228.961 602.797C228.961 600.767 228.961 598.767 228.961 596.797C228.961 594.767 228.931 593.036 228.871 591.603C228.812 590.171 228.722 589.275 228.603 588.917C228.244 587.902 227.618 587.275 226.722 587.037C225.886 586.738 224.931 586.619 223.857 586.678C222.842 586.678 221.917 586.678 221.081 586.678C220.663 586.678 220.305 586.469 220.006 586.052C219.767 585.634 219.648 585.246 219.648 584.887C219.648 584.529 219.767 584.201 220.006 583.902C220.245 583.604 220.543 583.455 220.902 583.455C222.275 583.455 223.588 583.514 224.842 583.634C226.155 583.753 227.468 583.813 228.782 583.813C232.244 583.813 235.677 583.723 239.08 583.544C242.542 583.305 246.004 583.067 249.467 582.828C249.944 582.768 250.422 582.738 250.9 582.738C251.377 582.679 251.825 582.649 252.243 582.649C255.586 582.649 258.78 583.067 261.824 583.902C264.869 584.738 267.346 586.261 269.257 588.469C271.227 590.618 272.212 593.663 272.212 597.603C272.212 600.051 271.555 602.259 270.242 604.229C268.988 606.199 267.346 607.901 265.317 609.334C263.347 610.707 261.317 611.811 259.227 612.647L259.317 612.826C262.182 613.303 264.929 614.169 267.555 615.423C270.242 616.676 272.45 618.408 274.182 620.616C275.913 622.766 276.779 625.512 276.779 628.855ZM334.476 599.125C334.476 595.245 333.79 592.35 332.417 590.439C331.044 588.469 329.104 587.156 326.596 586.499C324.149 585.843 321.224 585.514 317.821 585.514C317.224 585.514 316.418 585.544 315.403 585.604C314.448 585.604 313.552 585.783 312.717 586.141C311.941 586.44 311.553 587.037 311.553 587.932C311.553 591.932 311.523 595.932 311.463 599.931C311.463 603.871 311.463 607.871 311.463 611.93V612.557C312.12 612.736 312.806 612.856 313.523 612.915C314.239 612.915 314.925 612.915 315.582 612.915C318.746 612.915 321.761 612.557 324.626 611.841C327.492 611.065 329.85 609.692 331.7 607.722C333.551 605.752 334.476 602.886 334.476 599.125ZM355.251 647.48C355.251 647.958 354.803 648.346 353.908 648.644C353.072 648.883 352.027 649.032 350.774 649.092C349.58 649.212 348.446 649.271 347.371 649.271C346.296 649.271 345.58 649.271 345.222 649.271C342.715 649.271 340.685 649.003 339.133 648.465C337.581 647.928 336.118 646.555 334.745 644.346C331.82 639.63 329.014 634.854 326.328 630.019C323.641 625.124 320.955 620.228 318.268 615.333L311.553 615.602C311.553 620.318 311.553 625.064 311.553 629.84C311.553 634.556 311.553 639.272 311.553 643.988C311.553 644.764 311.821 645.301 312.358 645.6C312.955 645.898 313.582 646.048 314.239 646.048C315.075 646.048 315.881 646.018 316.657 645.958C317.492 645.898 318.298 645.868 319.074 645.868C319.492 645.868 319.821 646.077 320.059 646.495C320.298 646.853 320.418 647.212 320.418 647.57C320.418 648.167 320.209 648.555 319.791 648.734C319.373 648.853 318.925 648.913 318.448 648.913C315.761 648.913 313.075 648.883 310.388 648.823C307.762 648.764 305.105 648.734 302.419 648.734C301.046 648.734 299.643 648.764 298.21 648.823C296.837 648.943 295.434 649.003 294.001 649.003C293.643 649.003 293.315 648.823 293.016 648.465C292.718 648.107 292.569 647.749 292.569 647.391C292.569 646.495 293.106 646.048 294.181 646.048C294.718 646.048 295.225 646.077 295.703 646.137C296.24 646.137 296.748 646.137 297.225 646.137C298.061 646.137 298.927 646.048 299.822 645.868C300.717 645.63 301.225 645.003 301.344 643.988C301.464 642.436 301.494 640.675 301.434 638.705C301.434 636.735 301.434 634.944 301.434 633.332C301.434 631.362 301.434 629.392 301.434 627.422C301.434 625.392 301.434 623.392 301.434 621.422C301.434 617.363 301.434 613.303 301.434 609.244C301.434 605.185 301.434 601.155 301.434 597.155C301.434 595.603 301.434 594.051 301.434 592.499C301.494 590.947 301.464 589.424 301.344 587.932C301.285 586.917 300.867 586.32 300.091 586.141C299.315 585.962 298.509 585.872 297.673 585.872C297.255 585.872 296.777 585.902 296.24 585.962C295.763 585.962 295.285 585.962 294.807 585.962C293.554 585.962 292.927 585.365 292.927 584.171C292.927 583.694 293.076 583.395 293.375 583.276C293.673 583.097 294.031 583.007 294.449 583.007C296.479 583.007 298.479 583.097 300.449 583.276C302.479 583.395 304.508 583.455 306.538 583.455C309.344 583.455 312.12 583.335 314.866 583.097C317.612 582.858 320.358 582.738 323.104 582.738C325.432 582.738 327.88 582.977 330.447 583.455C333.073 583.873 335.521 584.649 337.79 585.783C340.058 586.857 341.909 588.35 343.341 590.26C344.774 592.171 345.491 594.558 345.491 597.424C345.491 601.065 344.476 604.17 342.446 606.737C340.416 609.304 337.819 611.304 334.655 612.736C333.581 613.274 332.447 613.692 331.253 613.99C330.118 614.229 328.954 614.468 327.76 614.706C330.566 619.363 333.432 623.989 336.357 628.586C339.282 633.123 342.297 637.6 345.401 642.018C346.237 643.152 347.162 644.107 348.177 644.883C349.192 645.66 350.416 646.197 351.848 646.495C352.147 646.555 352.565 646.585 353.102 646.585C353.639 646.525 354.117 646.555 354.535 646.674C355.012 646.794 355.251 647.062 355.251 647.48ZM422.503 615.512C422.503 612.229 422.145 608.856 421.429 605.394C420.712 601.931 419.548 598.737 417.936 595.812C416.324 592.827 414.175 590.409 411.489 588.559C408.803 586.708 405.489 585.783 401.549 585.783C397.669 585.783 394.386 586.738 391.699 588.648C389.013 590.559 386.834 593.036 385.162 596.081C383.55 599.125 382.386 602.409 381.67 605.931C380.954 609.393 380.595 612.736 380.595 615.96C380.595 619.303 380.924 622.736 381.58 626.258C382.237 629.78 383.342 633.034 384.894 636.018C386.506 639.003 388.655 641.421 391.341 643.272C394.087 645.122 397.49 646.048 401.549 646.048C405.668 646.048 409.071 645.122 411.758 643.272C414.444 641.361 416.563 638.884 418.115 635.839C419.727 632.795 420.861 629.482 421.518 625.9C422.175 622.318 422.503 618.855 422.503 615.512ZM433.517 615.065C433.517 621.691 432.293 627.571 429.846 632.705C427.398 637.839 423.787 641.869 419.011 644.794C414.295 647.719 408.474 649.182 401.549 649.182C394.863 649.182 389.132 647.779 384.356 644.973C379.581 642.167 375.909 638.257 373.342 633.242C370.835 628.228 369.581 622.437 369.581 615.87C369.581 611.214 370.328 606.886 371.82 602.886C373.372 598.827 375.551 595.275 378.357 592.23C381.222 589.126 384.595 586.708 388.476 584.977C392.416 583.246 396.773 582.38 401.549 582.38C408.235 582.38 413.966 583.753 418.742 586.499C423.518 589.186 427.16 592.976 429.667 597.872C432.234 602.767 433.517 608.498 433.517 615.065ZM510.734 600.2C510.734 600.618 510.585 600.976 510.286 601.274C509.988 601.513 509.63 601.633 509.212 601.633C508.973 601.633 508.675 601.603 508.316 601.543C508.018 601.483 507.809 601.334 507.69 601.095C507.69 601.036 507.6 600.648 507.421 599.931C507.302 599.155 507.122 598.26 506.884 597.245C506.705 596.23 506.496 595.275 506.257 594.379C506.078 593.484 505.928 592.857 505.809 592.499C505.57 591.663 505.242 590.887 504.824 590.171C504.466 589.395 503.988 588.678 503.391 588.022C502.854 587.425 501.839 587.007 500.347 586.768C498.914 586.529 497.422 586.41 495.869 586.41C494.377 586.35 493.243 586.32 492.467 586.32C491.631 586.32 490.646 586.35 489.512 586.41C488.437 586.469 487.482 586.738 486.646 587.216C485.87 587.634 485.482 588.469 485.482 589.723C485.482 598.737 485.482 607.752 485.482 616.766C485.542 625.78 485.572 634.795 485.572 643.809C485.572 644.525 485.87 645.092 486.467 645.51C487.064 645.868 487.751 646.107 488.527 646.227C489.303 646.346 489.959 646.406 490.497 646.406C490.915 646.406 491.303 646.376 491.661 646.316C492.079 646.256 492.497 646.227 492.914 646.227C493.87 646.227 494.347 646.704 494.347 647.659C494.347 647.958 494.258 648.286 494.079 648.644C493.899 649.003 493.601 649.182 493.183 649.182C491.094 649.182 488.974 649.122 486.825 649.003C484.676 648.883 482.527 648.823 480.378 648.823C477.453 648.823 474.557 648.913 471.692 649.092C470.976 649.152 470.259 649.212 469.543 649.271C468.826 649.331 468.14 649.361 467.483 649.361C466.528 649.361 466.051 648.943 466.051 648.107C466.051 647.63 466.17 647.212 466.409 646.853C466.707 646.495 467.125 646.316 467.662 646.316C467.901 646.316 468.11 646.346 468.289 646.406C468.528 646.406 468.767 646.406 469.006 646.406C469.603 646.406 470.349 646.376 471.244 646.316C472.14 646.197 472.946 645.958 473.662 645.6C474.438 645.182 474.826 644.585 474.826 643.809C474.826 639.093 474.826 634.407 474.826 629.75C474.886 625.034 474.916 620.318 474.916 615.602C474.916 611.184 474.886 606.796 474.826 602.439C474.826 598.021 474.826 593.633 474.826 589.275C474.826 588.619 474.468 588.022 473.752 587.484C473.095 586.947 472.468 586.649 471.871 586.589C470.856 586.41 469.782 586.35 468.647 586.41C467.573 586.41 466.528 586.41 465.513 586.41C463.722 586.41 462.14 586.44 460.767 586.499C459.454 586.559 458.32 586.947 457.365 587.663C456.469 588.38 455.693 589.753 455.036 591.783C454.857 592.32 454.618 593.305 454.32 594.738C454.081 596.111 453.813 597.454 453.514 598.767C453.216 600.021 452.977 600.797 452.798 601.095C452.619 601.334 452.41 601.483 452.171 601.543C451.992 601.603 451.753 601.633 451.455 601.633C450.977 601.633 450.589 601.573 450.29 601.454C450.052 601.334 449.932 601.006 449.932 600.469C449.932 599.692 449.992 598.916 450.111 598.14C450.231 597.364 450.32 596.588 450.38 595.812C450.499 594.141 450.589 592.469 450.649 590.798C450.708 589.126 450.738 587.454 450.738 585.783C450.738 585.067 450.798 584.44 450.917 583.902C451.037 583.365 451.574 583.097 452.529 583.097C453.126 583.097 453.693 583.156 454.23 583.276C454.827 583.335 455.424 583.365 456.021 583.365C456.499 583.425 456.977 583.455 457.454 583.455C457.991 583.455 458.499 583.485 458.976 583.544C462.319 583.604 465.842 583.664 469.543 583.723C473.304 583.723 476.886 583.723 480.288 583.723C483.631 583.723 487.154 583.723 490.855 583.723C494.556 583.664 498.048 583.604 501.332 583.544C502.466 583.485 503.57 583.455 504.645 583.455C505.779 583.395 506.913 583.365 508.048 583.365C508.943 583.365 509.51 583.604 509.749 584.082C510.048 584.499 510.167 585.037 510.107 585.693C510.107 586.35 510.107 587.007 510.107 587.663C510.107 589.156 510.167 590.648 510.286 592.141C510.406 593.573 510.495 595.036 510.555 596.528C510.555 597.125 510.585 597.722 510.645 598.319C510.704 598.916 510.734 599.543 510.734 600.2ZM595.394 584.261C595.394 584.977 595.065 585.425 594.409 585.604C593.752 585.783 593.006 585.843 592.17 585.783C591.334 585.723 590.648 585.693 590.111 585.693C589.514 585.693 588.857 585.872 588.141 586.231C587.484 586.589 587.156 587.126 587.156 587.843V644.167C587.156 644.943 587.484 645.51 588.141 645.868C588.857 646.167 589.514 646.316 590.111 646.316C590.767 646.316 591.394 646.286 591.991 646.227C592.648 646.167 593.275 646.137 593.872 646.137C594.767 646.137 595.215 646.525 595.215 647.301C595.215 647.719 595.155 648.137 595.036 648.555C594.916 648.913 594.618 649.092 594.14 649.092C593.424 649.092 592.707 649.062 591.991 649.003C591.334 648.943 590.648 648.913 589.931 648.913C587.185 648.734 584.35 648.644 581.425 648.644C579.037 648.644 576.619 648.734 574.171 648.913C573.395 648.973 572.619 649.032 571.843 649.092C571.127 649.212 570.351 649.271 569.515 649.271C569.037 649.271 568.739 649.122 568.619 648.823C568.5 648.465 568.44 648.077 568.44 647.659C568.44 647.301 568.53 646.973 568.709 646.674C568.888 646.376 569.187 646.227 569.604 646.227C570.321 646.227 571.007 646.256 571.664 646.316C572.38 646.316 573.067 646.316 573.724 646.316C574.38 646.316 575.067 646.167 575.783 645.868C576.5 645.51 576.858 644.943 576.858 644.167V615.691H542.024V644.078C542.024 644.854 542.353 645.421 543.009 645.779C543.726 646.077 544.382 646.227 544.979 646.227C545.636 646.227 546.293 646.197 546.949 646.137C547.606 646.077 548.233 646.048 548.83 646.048C549.725 646.048 550.173 646.436 550.173 647.212C550.173 647.809 550.113 648.197 549.994 648.376C549.934 648.495 549.666 648.704 549.188 649.003C547.099 648.883 544.979 648.794 542.83 648.734C540.681 648.615 538.562 648.555 536.472 648.555C534.084 648.555 531.667 648.644 529.219 648.823C528.443 648.883 527.667 648.943 526.891 649.003C526.175 649.122 525.428 649.182 524.652 649.182C524.115 649.182 523.787 649.032 523.667 648.734C523.548 648.376 523.488 647.988 523.488 647.57C523.488 647.212 523.608 646.883 523.846 646.585C524.085 646.286 524.384 646.137 524.742 646.137C525.398 646.137 526.055 646.167 526.712 646.227C527.428 646.227 528.115 646.227 528.771 646.227C529.428 646.227 530.115 646.077 530.831 645.779C531.547 645.421 531.906 644.854 531.906 644.078C531.906 638.944 531.906 633.81 531.906 628.676C531.965 623.482 531.995 618.288 531.995 613.095C531.995 608.856 531.965 604.647 531.906 600.469C531.906 596.29 531.906 592.111 531.906 587.932C531.906 587.156 531.547 586.619 530.831 586.32C530.115 585.962 529.428 585.783 528.771 585.783C528.115 585.783 527.428 585.813 526.712 585.872C526.055 585.872 525.398 585.872 524.742 585.872C523.846 585.872 523.399 585.455 523.399 584.619C523.399 584.261 523.488 583.873 523.667 583.455C523.846 583.037 524.175 582.828 524.652 582.828C525.428 582.828 526.175 582.888 526.891 583.007C527.667 583.067 528.443 583.126 529.219 583.186C531.667 583.365 534.084 583.455 536.472 583.455C538.562 583.455 540.651 583.395 542.741 583.276C544.83 583.097 546.919 583.007 549.009 583.007C549.606 583.007 549.964 583.126 550.083 583.365C550.203 583.544 550.262 583.902 550.262 584.44C550.262 585.455 549.755 585.962 548.74 585.962C548.143 585.962 547.516 585.932 546.86 585.872C546.263 585.813 545.636 585.783 544.979 585.783C544.382 585.783 543.726 585.962 543.009 586.32C542.353 586.678 542.024 587.216 542.024 587.932V612.289H576.858C576.858 608.408 576.858 604.558 576.858 600.737C576.858 596.857 576.858 592.976 576.858 589.096C576.858 587.902 576.649 587.037 576.231 586.499C575.813 585.962 574.977 585.693 573.724 585.693C573.067 585.693 572.38 585.723 571.664 585.783C571.007 585.783 570.321 585.783 569.604 585.783C569.246 585.783 568.948 585.634 568.709 585.335C568.53 584.977 568.44 584.619 568.44 584.261C568.44 583.902 568.5 583.574 568.619 583.276C568.739 582.917 569.037 582.738 569.515 582.738C570.351 582.738 571.127 582.798 571.843 582.917C572.619 582.977 573.395 583.037 574.171 583.097C575.186 583.156 576.171 583.216 577.126 583.276C578.141 583.276 579.156 583.276 580.171 583.276H581.425C582.857 583.276 584.29 583.276 585.723 583.276C587.156 583.216 588.588 583.156 590.021 583.097C590.678 583.037 591.364 582.977 592.081 582.917C592.797 582.858 593.483 582.828 594.14 582.828C594.976 582.828 595.394 583.305 595.394 584.261ZM665.68 633.242C665.68 634.317 665.56 635.421 665.322 636.556C665.143 637.63 664.963 638.705 664.784 639.779C664.665 640.973 664.575 642.197 664.516 643.451C664.456 644.645 664.277 645.839 663.978 647.033C663.919 647.45 663.68 647.838 663.262 648.197C662.904 648.555 662.486 648.734 662.008 648.734C655.621 648.734 649.233 648.704 642.846 648.644C636.458 648.525 630.07 648.465 623.683 648.465C621.713 648.465 619.743 648.555 617.773 648.734C615.862 648.853 613.952 648.913 612.042 648.913C611.683 648.913 611.295 648.823 610.878 648.644C610.46 648.406 610.251 648.077 610.251 647.659C610.251 646.883 610.549 646.376 611.146 646.137C611.743 645.898 612.46 645.779 613.295 645.779C614.191 645.779 615.056 645.719 615.892 645.6C616.728 645.48 617.444 645.122 618.041 644.525C618.638 643.869 618.937 642.794 618.937 641.302L618.847 590.35C618.847 588.977 618.459 588.111 617.683 587.753C616.907 587.335 615.952 587.126 614.818 587.126C614.34 587.126 613.833 587.156 613.295 587.216C612.818 587.216 612.34 587.216 611.863 587.216C611.266 587.216 610.728 587.096 610.251 586.857C609.773 586.619 609.534 586.171 609.534 585.514C609.534 584.201 610.161 583.544 611.415 583.544C612.43 583.544 613.445 583.574 614.459 583.634C615.474 583.694 616.489 583.723 617.504 583.723C623.533 583.723 629.533 583.694 635.503 583.634C641.532 583.514 647.562 583.455 653.591 583.455C656.457 583.455 659.322 583.365 662.188 583.186C662.426 584.917 662.725 586.678 663.083 588.469C663.441 590.201 663.74 591.962 663.978 593.753C664.098 594.051 664.187 594.379 664.247 594.738C664.307 595.096 664.337 595.424 664.337 595.723C664.337 596.439 664.068 596.946 663.531 597.245C663.053 597.484 662.486 597.603 661.829 597.603C661.232 597.603 660.785 597.513 660.486 597.334C660.188 597.096 659.919 596.678 659.68 596.081C658.665 592.618 657.233 590.201 655.382 588.828C653.531 587.454 650.785 586.768 647.144 586.768H629.055V613.095C631.324 613.035 633.563 613.005 635.771 613.005C637.98 612.945 640.189 612.856 642.398 612.736C644.726 612.617 646.995 612.408 649.203 612.11C651.412 611.751 653.651 611.363 655.919 610.945C655.979 610.945 656.009 610.945 656.009 610.945C656.069 610.945 656.128 610.945 656.188 610.945C656.367 610.945 656.606 611.005 656.904 611.125C657.263 611.244 657.442 611.423 657.442 611.662C657.442 612.08 657.233 612.826 656.815 613.9C656.457 614.975 656.188 615.691 656.009 616.05C655.591 616.826 654.964 617.214 654.128 617.214C653.651 617.214 653.143 617.214 652.606 617.214C652.129 617.154 651.651 617.094 651.173 617.035C650.099 616.915 649.024 616.826 647.95 616.766C646.875 616.706 645.801 616.647 644.726 616.587C643.234 616.587 641.771 616.587 640.338 616.587C638.906 616.587 637.443 616.587 635.951 616.587C635.115 616.587 634.13 616.647 632.995 616.766C631.921 616.885 630.996 617.214 630.22 617.751C629.443 618.288 629.055 619.154 629.055 620.348V641.749C629.055 643.481 629.414 644.555 630.13 644.973C630.906 645.331 632.04 645.51 633.533 645.51H641.323C642.935 645.51 644.726 645.421 646.696 645.242C648.726 645.063 650.666 644.704 652.517 644.167C654.427 643.63 655.979 642.794 657.173 641.66C658.427 640.466 659.382 639.093 660.038 637.541C660.755 635.989 661.471 634.466 662.188 632.974C662.486 632.317 663.083 631.989 663.978 631.989C664.396 631.989 664.784 632.078 665.143 632.257C665.501 632.437 665.68 632.765 665.68 633.242ZM722.079 599.125C722.079 595.245 721.392 592.35 720.019 590.439C718.646 588.469 716.706 587.156 714.199 586.499C711.751 585.843 708.826 585.514 705.423 585.514C704.826 585.514 704.02 585.544 703.005 585.604C702.05 585.604 701.155 585.783 700.319 586.141C699.543 586.44 699.155 587.037 699.155 587.932C699.155 591.932 699.125 595.932 699.065 599.931C699.065 603.871 699.065 607.871 699.065 611.93V612.557C699.722 612.736 700.408 612.856 701.125 612.915C701.841 612.915 702.528 612.915 703.184 612.915C706.348 612.915 709.363 612.557 712.229 611.841C715.094 611.065 717.452 609.692 719.303 607.722C721.153 605.752 722.079 602.886 722.079 599.125ZM742.853 647.48C742.853 647.958 742.406 648.346 741.51 648.644C740.674 648.883 739.63 649.032 738.376 649.092C737.182 649.212 736.048 649.271 734.973 649.271C733.899 649.271 733.182 649.271 732.824 649.271C730.317 649.271 728.287 649.003 726.735 648.465C725.183 647.928 723.72 646.555 722.347 644.346C719.422 639.63 716.616 634.854 713.93 630.019C711.244 625.124 708.557 620.228 705.871 615.333L699.155 615.602C699.155 620.318 699.155 625.064 699.155 629.84C699.155 634.556 699.155 639.272 699.155 643.988C699.155 644.764 699.423 645.301 699.961 645.6C700.558 645.898 701.184 646.048 701.841 646.048C702.677 646.048 703.483 646.018 704.259 645.958C705.095 645.898 705.901 645.868 706.677 645.868C707.095 645.868 707.423 646.077 707.662 646.495C707.9 646.853 708.02 647.212 708.02 647.57C708.02 648.167 707.811 648.555 707.393 648.734C706.975 648.853 706.527 648.913 706.05 648.913C703.363 648.913 700.677 648.883 697.991 648.823C695.364 648.764 692.707 648.734 690.021 648.734C688.648 648.734 687.245 648.764 685.812 648.823C684.439 648.943 683.036 649.003 681.604 649.003C681.246 649.003 680.917 648.823 680.619 648.465C680.32 648.107 680.171 647.749 680.171 647.391C680.171 646.495 680.708 646.048 681.783 646.048C682.32 646.048 682.828 646.077 683.305 646.137C683.842 646.137 684.35 646.137 684.827 646.137C685.663 646.137 686.529 646.048 687.424 645.868C688.32 645.63 688.827 645.003 688.946 643.988C689.066 642.436 689.096 640.675 689.036 638.705C689.036 636.735 689.036 634.944 689.036 633.332C689.036 631.362 689.036 629.392 689.036 627.422C689.036 625.392 689.036 623.392 689.036 621.422C689.036 617.363 689.036 613.303 689.036 609.244C689.036 605.185 689.036 601.155 689.036 597.155C689.036 595.603 689.036 594.051 689.036 592.499C689.096 590.947 689.066 589.424 688.946 587.932C688.887 586.917 688.469 586.32 687.693 586.141C686.917 585.962 686.111 585.872 685.275 585.872C684.857 585.872 684.38 585.902 683.842 585.962C683.365 585.962 682.887 585.962 682.41 585.962C681.156 585.962 680.529 585.365 680.529 584.171C680.529 583.694 680.678 583.395 680.977 583.276C681.275 583.097 681.634 583.007 682.051 583.007C684.081 583.007 686.081 583.097 688.051 583.276C690.081 583.395 692.11 583.455 694.14 583.455C696.946 583.455 699.722 583.335 702.468 583.097C705.214 582.858 707.96 582.738 710.706 582.738C713.034 582.738 715.482 582.977 718.049 583.455C720.676 583.873 723.123 584.649 725.392 585.783C727.66 586.857 729.511 588.35 730.944 590.26C732.376 592.171 733.093 594.558 733.093 597.424C733.093 601.065 732.078 604.17 730.048 606.737C728.019 609.304 725.422 611.304 722.258 612.736C721.183 613.274 720.049 613.692 718.855 613.99C717.721 614.229 716.557 614.468 715.363 614.706C718.168 619.363 721.034 623.989 723.959 628.586C726.884 633.123 729.899 637.6 733.003 642.018C733.839 643.152 734.764 644.107 735.779 644.883C736.794 645.66 738.018 646.197 739.451 646.495C739.749 646.555 740.167 646.585 740.704 646.585C741.241 646.525 741.719 646.555 742.137 646.674C742.615 646.794 742.853 647.062 742.853 647.48ZM803.031 631.631C803.031 635.033 802.225 637.899 800.613 640.227C799.061 642.496 797.002 644.316 794.435 645.689C791.868 647.062 789.062 648.047 786.017 648.644C783.033 649.182 780.137 649.45 777.331 649.45C775.541 649.45 773.75 649.301 771.959 649.003C770.168 648.704 768.407 648.256 766.675 647.659C765.362 647.182 764.049 646.645 762.735 646.048C761.482 645.391 760.168 644.943 758.795 644.704C758.557 643.033 758.288 641.391 757.989 639.779C757.691 638.108 757.392 636.436 757.094 634.765C757.034 634.287 756.945 633.839 756.825 633.422C756.766 633.004 756.736 632.586 756.736 632.168C756.736 631.153 756.945 630.437 757.363 630.019C757.781 629.601 758.527 629.392 759.601 629.392C760.497 629.392 761.124 629.571 761.482 629.929C761.84 630.287 762.109 630.884 762.288 631.72C763.004 634.705 763.84 637.302 764.795 639.511C765.81 641.719 767.272 643.421 769.183 644.615C771.093 645.749 773.779 646.316 777.242 646.316C781.66 646.316 785.301 645.271 788.167 643.182C791.092 641.093 792.554 637.66 792.554 632.884C792.554 630.616 791.987 628.676 790.853 627.064C789.719 625.392 788.286 623.959 786.555 622.766C784.883 621.572 783.152 620.557 781.361 619.721C779.51 618.706 777.63 617.751 775.72 616.855C773.869 615.96 771.989 615.035 770.078 614.08C768.228 613.184 766.317 612.02 764.347 610.587C762.377 609.095 760.706 607.393 759.333 605.483C758.019 603.513 757.363 601.394 757.363 599.125C757.363 595.185 758.407 591.962 760.497 589.454C762.586 586.947 765.243 585.096 768.466 583.902C771.75 582.709 775.123 582.112 778.585 582.112C780.854 582.112 782.943 582.35 784.853 582.828C786.823 583.305 788.853 583.932 790.942 584.708C792.077 585.126 793.211 585.425 794.345 585.604C795.479 585.783 796.614 585.932 797.748 586.052C797.927 587.843 798.106 589.663 798.285 591.514C798.464 593.305 798.733 595.066 799.091 596.797C799.151 597.036 799.211 597.275 799.27 597.513C799.33 597.752 799.36 598.021 799.36 598.319C799.36 599.334 798.972 599.991 798.196 600.289C797.42 600.588 796.614 600.737 795.778 600.737C795.539 600.737 795.211 600.707 794.793 600.648C794.435 600.588 794.166 600.439 793.987 600.2C793.868 600.08 793.778 599.872 793.718 599.573C793.659 599.275 793.629 599.036 793.629 598.857C792.853 594.26 791.271 590.738 788.883 588.29C786.495 585.843 782.853 584.619 777.958 584.619C774.376 584.619 771.6 585.604 769.63 587.574C767.66 589.544 766.675 592.32 766.675 595.902C766.675 598.349 767.332 600.439 768.645 602.17C769.959 603.901 771.69 605.394 773.839 606.647C775.988 607.901 778.346 609.095 780.913 610.229C783.54 611.304 786.137 612.438 788.704 613.632C791.331 614.826 793.718 616.229 795.868 617.84C798.017 619.393 799.748 621.303 801.061 623.571C802.375 625.78 803.031 628.467 803.031 631.631Z" fill="#05274D"/>
<path d="M550.553 308.766L522.024 302.043V283.679L585.806 281.876H627.78C660.901 281.876 686.808 291.823 705.499 311.717C724.191 331.502 733.537 359.649 733.537 396.159C733.537 420.534 729.001 441.85 719.928 460.104C710.965 478.359 698.066 492.405 681.233 502.243C664.399 512.081 644.942 517 622.862 517H522.024V496.832L550.553 490.11V308.766ZM624.501 490.11C646.472 490.11 663.689 482.458 676.15 467.155C688.72 451.852 695.006 428.733 695.006 397.798C695.006 367.629 688.939 345.275 676.806 330.737C664.782 316.089 647.893 308.766 626.141 308.766H585.806V490.11H624.501Z" fill="#05274D"/>
<path d="M382.32 276.305C392.813 276.305 401.733 279.045 409.078 284.525C416.424 290.005 421.788 297.525 425.169 307.086C426.218 310.118 427.326 313.266 428.492 316.53C429.658 319.795 430.765 323.06 431.815 326.325C432.281 327.607 432.748 328.89 433.214 330.172C433.564 331.571 433.972 332.854 434.438 334.02C434.905 335.652 435.429 337.168 436.012 338.567C436.479 340.083 436.945 341.482 437.411 342.765C438.111 344.98 438.986 347.545 440.035 350.46C441.084 353.492 442.075 356.232 443.008 358.68C443.474 360.312 443.941 361.77 444.407 363.052C444.874 364.335 445.282 365.443 445.632 366.375C445.981 367.541 446.389 368.766 446.856 370.048C447.322 371.331 447.789 372.672 448.255 374.071C448.605 375.47 449.071 376.927 449.654 378.443C452.103 385.905 455.018 394.825 458.399 405.202C461.78 415.696 465.22 426.364 468.718 437.208C472.216 448.168 475.48 458.312 478.512 467.64C481.427 476.967 483.7 484.313 485.333 489.676C488.131 499.121 487.956 506.291 484.808 511.189C481.66 516.202 476.938 518.709 470.641 518.709C466.444 518.709 462.888 517.135 459.973 513.987C456.941 510.839 454.551 506.117 452.802 499.82C446.623 479.066 440.618 457.612 434.788 435.459C428.842 413.422 422.487 391.968 415.724 371.098C413.742 364.685 411.527 360.079 409.078 357.281C406.513 354.483 403.249 353.083 399.284 353.083C395.553 353.083 392.114 354.366 388.966 356.931C385.817 359.613 382.961 363.869 380.396 369.698C370.368 393.018 360.807 416.337 351.713 439.656C342.618 463.092 333.291 486.412 323.73 509.614C321.281 515.444 318.483 519.642 315.335 522.207C312.187 524.772 308.805 526.055 305.191 526.055C298.312 526.055 294.056 523.548 292.424 518.534C290.675 513.52 290.616 507.516 292.249 500.52C296.912 479.066 301.868 457.554 307.115 435.984C312.362 414.53 317.783 393.134 323.38 371.797C329.56 374.129 335.331 375.878 340.695 377.044C346.058 378.21 350.372 378.21 353.637 377.044C356.785 375.878 358.359 372.905 358.359 368.124C358.359 364.86 356.26 362.061 352.063 359.729C347.749 357.514 339.703 355.241 327.927 352.909C328.627 349.76 329.443 346.729 330.376 343.814C331.192 340.899 332.125 337.868 333.174 334.719C341.452 337.518 348.915 339.617 355.561 341.016C362.09 342.531 367.279 342.706 371.126 341.54C374.857 340.491 376.723 337.576 376.723 332.796C376.723 329.298 374.099 326.266 368.853 323.701C363.606 321.136 353.462 318.513 338.421 315.831C338.421 315.831 338.479 315.598 338.596 315.131C338.712 314.781 338.887 314.315 339.12 313.732C341.802 304.171 345.183 296.651 349.264 291.171C353.229 285.691 357.951 281.843 363.431 279.628C368.911 277.412 375.207 276.305 382.32 276.305ZM393.688 463.792C399.984 463.792 405.289 465.774 409.603 469.738C413.917 473.819 416.074 480.465 416.074 489.676C416.074 496.556 413.801 501.919 409.253 505.767C404.706 509.731 398.935 511.713 391.939 511.713C385.06 511.713 379.405 509.614 374.974 505.417C370.427 501.22 368.153 494.574 368.153 485.479C368.153 480.116 370.543 475.16 375.324 470.613C379.988 466.066 386.109 463.792 393.688 463.792ZM322.68 434.41C320.232 433.71 318.483 432.486 317.433 430.737C316.384 428.988 315.859 427.064 315.859 424.965C315.859 422.167 316.384 419.718 317.433 417.62C318.483 415.521 319.999 414.064 321.981 413.247C323.963 412.431 326.411 412.373 329.326 413.072C330.376 413.189 331.483 413.422 332.649 413.772C333.815 414.122 334.923 414.355 335.972 414.472C338.654 415.171 340.636 416.337 341.919 417.97C343.201 419.602 343.843 421.642 343.843 424.091C343.843 429.221 342.735 432.894 340.52 435.109C338.304 437.441 334.806 438.024 330.026 436.858C328.977 436.508 327.752 436.1 326.353 435.634C324.954 435.168 323.73 434.759 322.68 434.41ZM429.366 443.154C423.42 444.787 417.998 445.953 413.101 446.652C408.204 447.468 404.356 447.177 401.558 445.778C398.643 444.495 397.186 441.464 397.186 436.683C397.186 433.069 399.226 430.037 403.307 427.589C407.388 425.257 413.976 422.75 423.07 420.068C429.366 418.203 435.837 416.454 442.483 414.821C449.013 413.189 455.601 411.557 462.247 409.924C470.292 408.059 477.171 407.126 482.884 407.126C488.597 407.243 491.454 410.624 491.454 417.27C491.454 420.301 489.588 422.808 485.857 424.79C482.126 426.889 476.122 429.279 467.843 431.961C461.547 434.06 455.251 435.984 448.955 437.733C442.542 439.598 436.012 441.405 429.366 443.154ZM463.995 491.775C460.264 492.358 457.058 491.717 454.376 489.851C451.695 488.102 450.354 485.362 450.354 481.631C450.354 478.133 451.112 475.568 452.627 473.936C454.143 472.42 457 471.021 461.197 469.738C462.247 469.389 463.354 469.097 464.52 468.864C465.686 468.747 466.91 468.572 468.193 468.339C471.341 467.873 473.848 469.272 475.713 472.537C477.462 475.801 478.337 478.833 478.337 481.631C478.337 483.38 477.812 485.013 476.763 486.528C475.713 488.161 473.906 489.327 471.341 490.026C470.292 490.376 469.126 490.726 467.843 491.076C466.444 491.425 465.161 491.659 463.995 491.775Z" fill="url(#paint0_linear_2006_16)"/>
<defs>
<linearGradient id="paint0_linear_2006_16" x1="334.361" y1="267.79" x2="617.691" y2="651.859" gradientUnits="userSpaceOnUse">
<stop stop-color="#05274D"/>
<stop offset="0.55" stop-color="#094385"/>
<stop offset="1" stop-color="#0C5BB3"/>
</linearGradient>
</defs>
</svg>
